<?xml version="1.0" standalone="no"?>
<!DOCTYPE svg PUBLIC "-//W3C//DTD SVG 20010904//EN"
 "http://www.w3.org/TR/2001/REC-SVG-20010904/DTD/svg10.dtd">
<svg version="1.0" xmlns="http://www.w3.org/2000/svg"
 width="1024.000000pt" height="1183.000000pt" viewBox="0 0 1024.000000 1183.000000"
 preserveAspectRatio="xMidYMid meet">

<g transform="translate(0.000000,1183.000000) scale(0.100000,-0.100000)"
fill="currentColor" stroke="none">
<path d="M5795 11810 c-423 -5 -806 -9 -850 -10 -97 -1 -307 -24 -470 -51 -65
-11 -140 -22 -165 -25 -25 -2 -114 -21 -199 -40 -85 -20 -166 -38 -180 -40
-76 -14 -589 -180 -665 -215 -22 -11 -44 -19 -49 -19 -4 0 -32 -11 -60 -24
-29 -13 -88 -38 -132 -57 -369 -153 -886 -466 -1231 -744 -347 -280 -565 -500
-832 -840 -97 -124 -258 -359 -331 -482 -68 -117 -191 -361 -241 -478 -28 -66
-57 -133 -64 -150 -20 -44 -112 -320 -130 -390 -9 -33 -27 -102 -41 -153 -13
-52 -26 -110 -29 -130 -2 -21 -16 -98 -29 -172 -31 -166 -45 -319 -52 -560 -2
-102 -9 -309 -15 -460 -18 -508 -30 -1260 -30 -1965 0 -853 13 -1331 45 -1695
2 -25 4 -48 5 -52 0 -5 371 -8 825 -8 496 0 825 -4 825 -9 0 -5 -16 -47 -36
-93 -20 -46 -55 -130 -79 -188 -24 -58 -66 -159 -93 -225 -27 -66 -93 -223
-145 -350 -52 -126 -121 -291 -152 -365 -31 -74 -63 -151 -70 -170 -7 -19 -27
-65 -44 -103 -17 -37 -31 -73 -31 -80 0 -7 -4 -17 -9 -23 -4 -5 -43 -97 -86
-204 -43 -107 -82 -199 -86 -205 -4 -5 -39 -89 -77 -185 -38 -96 -81 -200 -95
-231 -14 -30 -65 -152 -112 -270 -48 -118 -96 -233 -108 -256 -11 -24 -18 -45
-15 -48 13 -13 478 -28 898 -28 1688 -1 3727 11 3845 22 180 16 392 40 505 55
52 7 111 14 130 15 19 1 112 17 206 36 93 19 186 37 205 40 95 16 364 91 539
149 303 100 677 268 924 415 65 39 120 71 122 71 8 0 249 163 374 253 295 212
680 561 880 797 167 197 186 221 283 360 195 278 348 559 457 840 29 74 56
144 61 155 16 36 68 195 64 195 -3 0 0 12 6 27 20 53 69 222 75 260 3 21 11
61 19 88 20 75 55 241 60 288 2 23 13 96 24 162 23 137 50 343 52 395 1 19 7
114 15 210 35 456 44 1184 24 1960 -20 759 -30 1175 -36 1573 l-7 407 -823 0
c-718 0 -824 2 -824 15 0 8 12 40 27 72 14 32 64 150 110 263 47 113 116 281
154 374 38 92 81 193 94 222 14 30 25 60 25 67 0 7 4 17 9 23 5 5 41 90 81
189 40 99 79 194 87 210 8 17 46 109 85 205 39 96 81 198 93 225 13 28 62 147
110 265 48 118 93 229 102 245 8 17 25 57 38 90 13 33 49 121 80 195 130 310
135 324 125 334 -5 5 -148 13 -337 17 -511 13 -2774 18 -3628 9z m1223 -1851
c85 0 314 -6 510 -14 197 -8 381 -15 410 -15 28 0 52 -4 52 -10 0 -5 -5 -10
-11 -10 -6 0 -30 -17 -54 -38 -75 -66 -389 -278 -610 -412 -506 -306 -522
-316 -738 -459 -600 -395 -942 -775 -1125 -1251 -69 -178 -130 -452 -131 -590
-2 -158 -29 -403 -60 -540 -5 -25 -13 -61 -16 -80 -16 -92 -82 -274 -155 -425
-126 -263 -315 -501 -535 -676 -223 -177 -459 -306 -750 -410 -122 -44 -442
-127 -520 -135 -27 -3 -75 -9 -105 -14 -319 -55 -719 -60 -1116 -14 l-141 17
-9 691 c-13 1019 -7 1335 32 1661 9 72 18 153 20 180 5 64 19 137 50 255 13
52 26 104 28 115 10 52 22 90 69 215 151 411 393 741 772 1055 124 103 130
108 280 210 320 219 675 375 1120 494 83 22 161 42 175 45 14 2 104 20 201 40
96 19 184 35 195 35 40 1 62 3 149 17 239 36 488 55 790 60 171 3 315 7 320
10 6 2 177 2 380 -2 204 -3 439 -5 523 -5z m1181 -2995 c58 -8 105 -14 106
-14 2 0 13 -666 21 -1300 7 -512 -2 -783 -32 -1037 -8 -70 -17 -153 -20 -183
-5 -57 -34 -201 -60 -305 -9 -33 -17 -67 -19 -76 -14 -69 -97 -292 -153 -409
-80 -169 -223 -385 -331 -505 -112 -123 -332 -335 -421 -406 -257 -203 -512
-354 -809 -479 -112 -46 -368 -135 -416 -144 -11 -2 -78 -20 -150 -39 -71 -20
-148 -38 -170 -42 -22 -3 -80 -14 -130 -25 -120 -25 -259 -49 -320 -54 -27 -2
-151 -16 -275 -30 -256 -29 -502 -48 -599 -46 -36 1 -340 1 -676 1 -335 -1
-720 3 -855 9 -450 20 -601 28 -608 34 -8 9 -22 0 658 454 344 230 670 449
725 487 55 38 132 90 170 117 151 103 508 409 607 519 103 115 194 244 252
359 55 107 129 306 140 373 3 20 15 78 26 129 30 132 59 349 59 444 1 98 25
285 52 409 11 50 22 105 25 124 9 53 87 278 134 384 82 187 238 414 390 567
211 213 430 344 751 448 172 56 411 120 479 128 25 3 81 14 125 24 98 22 251
48 325 54 30 3 116 12 190 21 290 35 591 39 809 9z"/>
</g>
</svg>
