<?xml version="1.0" standalone="no"?>
<!DOCTYPE svg PUBLIC "-//W3C//DTD SVG 20010904//EN"
 "http://www.w3.org/TR/2001/REC-SVG-20010904/DTD/svg10.dtd">
<svg version="1.0" xmlns="http://www.w3.org/2000/svg"
 width="397.000000pt" height="111.000000pt" viewBox="0 0 397.000000 111.000000"
 preserveAspectRatio="xMidYMid meet">

<g transform="translate(0.000000,111.000000) scale(0.100000,-0.100000)"
fill="currentColor" stroke="none">
<path d="M150 837 l-125 -73 -3 -107 -3 -107 68 0 68 0 84 84 c49 50 89 82 97
79 10 -4 14 4 14 26 0 26 -4 31 -25 31 -17 0 -25 -5 -25 -18 0 -9 -35 -53 -78
-95 -71 -71 -82 -78 -113 -75 l-34 3 -3 75 -2 75 109 63 109 62 109 -63 108
-63 0 -135 c0 -132 -1 -137 -27 -175 -15 -22 -62 -66 -103 -99 -55 -43 -75
-65 -75 -82 0 -13 4 -23 8 -23 14 0 113 77 164 126 76 74 83 96 83 268 l0 148
-128 74 c-71 41 -134 74 -140 73 -7 0 -68 -33 -137 -72z"/>
<path d="M1217 792 c-10 -10 -17 -23 -17 -29 0 -15 34 -43 53 -43 19 0 47 26
47 45 0 19 -28 45 -49 45 -10 0 -25 -8 -34 -18z"/>
<path d="M3680 570 l0 -230 25 0 25 0 0 230 0 230 -25 0 -25 0 0 -230z"/>
<path d="M1952 768 c-60 -10 -117 -45 -149 -91 -39 -56 -45 -156 -14 -221 23
-46 69 -88 118 -107 48 -19 144 -14 190 10 52 26 59 37 38 61 -16 17 -19 18
-33 4 -38 -39 -130 -46 -191 -14 -55 28 -84 78 -83 146 1 98 68 164 167 164
43 0 103 -21 116 -42 8 -12 42 29 34 41 -21 35 -126 61 -193 49z"/>
<path d="M670 550 l0 -220 35 0 34 0 3 143 3 142 71 -115 c39 -63 77 -116 86
-118 10 -2 39 38 89 120 l74 123 3 -147 3 -148 34 0 35 0 -2 218 -3 217 -30 0
c-27 0 -35 -10 -111 -138 -45 -76 -84 -140 -87 -143 -3 -3 -44 60 -92 140 -80
134 -90 146 -116 146 l-29 0 0 -220z"/>
<path d="M2920 701 c0 -39 -2 -41 -30 -41 -23 0 -30 -4 -30 -20 0 -16 7 -20
30 -20 l30 0 0 -109 c0 -103 1 -111 26 -140 22 -27 33 -31 72 -31 56 0 75 10
66 34 -5 13 -14 16 -35 11 -15 -4 -37 -1 -48 5 -19 10 -21 20 -21 120 l0 110
45 0 c38 0 45 3 45 20 0 17 -7 20 -44 20 -44 0 -45 0 -48 38 -3 32 -7 37 -30
40 -27 3 -28 1 -28 -37z"/>
<path d="M380 656 c0 -14 4 -27 9 -30 19 -12 2 -39 -72 -114 l-76 -77 -3 -68
-3 -68 -60 48 c-41 34 -68 65 -85 101 -19 40 -30 52 -48 52 -19 0 -22 -4 -16
-27 17 -71 78 -141 193 -221 l61 -43 0 113 0 114 75 74 c72 72 75 76 75 122 0
45 -2 48 -25 48 -20 0 -25 -5 -25 -24z"/>
<path d="M1453 660 c-103 -24 -152 -130 -107 -226 35 -74 151 -107 222 -64 18
11 35 20 37 20 6 0 -6 -61 -16 -82 -21 -39 -124 -47 -189 -13 -26 13 -28 13
-39 -11 -6 -14 -11 -27 -11 -29 0 -14 69 -37 125 -42 86 -8 145 14 177 65 21
34 23 50 26 210 l4 172 -36 0 c-30 0 -36 -3 -36 -22 0 -19 -1 -20 -17 -6 -16
14 -88 40 -103 37 -3 -1 -20 -4 -37 -9z m109 -71 c26 -14 51 -74 42 -102 -25
-85 -150 -102 -189 -26 -23 43 -18 77 14 110 23 23 38 29 71 29 23 0 50 -5 62
-11z"/>
<path d="M2266 660 c-42 -13 -95 -69 -107 -112 -19 -71 12 -151 73 -188 47
-29 134 -27 178 3 58 39 75 71 75 140 0 70 -24 116 -76 142 -37 20 -106 27
-143 15z m137 -80 c35 -39 38 -113 7 -153 -65 -83 -200 -33 -200 73 0 107 123
158 193 80z"/>
<path d="M2656 660 c-15 -5 -37 -17 -47 -26 -18 -16 -19 -16 -19 4 0 18 -6 22
-30 22 l-30 0 0 -160 0 -160 30 0 30 0 0 100 c0 54 5 110 11 124 17 37 74 61
118 50 54 -14 71 -55 71 -176 0 -98 0 -98 25 -98 l25 0 0 118 c0 100 -3 122
-20 150 -32 52 -96 72 -164 52z"/>
<path d="M3246 660 c-15 -5 -37 -17 -47 -26 -18 -16 -19 -16 -19 4 0 17 -6 22
-25 22 l-25 0 0 -160 0 -160 24 0 c24 0 24 1 28 111 3 107 4 112 31 135 16 14
41 24 58 24 26 0 29 3 29 30 0 32 -6 34 -54 20z"/>
<path d="M3407 656 c-71 -26 -107 -78 -107 -156 0 -93 70 -160 167 -160 85 0
145 46 163 126 18 80 -32 170 -108 192 -49 15 -67 15 -115 -2z m113 -51 c55
-29 74 -97 45 -160 -19 -39 -54 -59 -99 -58 -69 2 -108 45 -108 118 0 89 84
140 162 100z"/>
<path d="M1212 498 l3 -163 38 -3 37 -3 0 165 0 166 -40 0 -40 0 2 -162z"/>
</g>
</svg>
