<?xml version="1.0" standalone="no"?>
<!DOCTYPE svg PUBLIC "-//W3C//DTD SVG 20010904//EN"
 "http://www.w3.org/TR/2001/REC-SVG-20010904/DTD/svg10.dtd">
<svg version="1.0" xmlns="http://www.w3.org/2000/svg"
 width="1024.000000pt" height="1025.000000pt" viewBox="0 0 1024.000000 1025.000000"
 preserveAspectRatio="xMidYMid meet">

<g transform="translate(0.000000,1025.000000) scale(0.100000,-0.100000)"
fill="currentColor" stroke="none">
<path d="M5025 10211 c-6 -4 -45 -27 -87 -49 -42 -23 -109 -62 -148 -87 -38
-25 -70 -42 -70 -40 0 3 -17 -6 -37 -20 -21 -14 -43 -25 -50 -25 -7 0 -13 -4
-13 -10 0 -5 -5 -10 -10 -10 -6 0 -35 -16 -65 -35 -30 -19 -55 -33 -55 -30 0
2 -16 -7 -36 -20 -20 -14 -41 -25 -46 -25 -5 0 -17 -8 -28 -17 -10 -10 -45
-31 -77 -48 -32 -16 -64 -35 -71 -42 -7 -7 -18 -13 -24 -13 -5 0 -22 -8 -36
-18 -15 -11 -56 -34 -92 -53 -36 -18 -71 -39 -78 -46 -7 -7 -19 -13 -27 -13
-7 0 -15 -3 -17 -7 -4 -10 -76 -52 -100 -60 -10 -3 -18 -9 -18 -14 0 -5 -5 -9
-10 -9 -6 0 -36 -16 -66 -35 -30 -19 -56 -34 -59 -32 -2 1 -13 -6 -25 -15 -11
-10 -31 -20 -45 -24 -14 -3 -25 -10 -25 -14 0 -4 -8 -10 -17 -13 -10 -4 -49
-24 -88 -47 -38 -22 -81 -46 -95 -52 -14 -7 -27 -15 -30 -18 -6 -6 -40 -26
-85 -49 -16 -9 -32 -18 -35 -21 -6 -6 -26 -17 -105 -60 -31 -17 -73 -41 -95
-55 -22 -14 -42 -25 -45 -25 -3 0 -30 -16 -60 -35 -30 -19 -55 -33 -55 -30 0
2 -24 -12 -52 -31 -29 -19 -56 -34 -60 -34 -4 0 -32 -16 -62 -35 -30 -19 -57
-35 -60 -35 -3 0 -30 -16 -61 -35 -30 -20 -55 -32 -55 -28 0 4 -4 4 -8 -2 -4
-5 -16 -15 -27 -21 -68 -37 -118 -66 -152 -87 -21 -13 -41 -25 -45 -26 -23 -5
-45 -17 -63 -33 -11 -10 -30 -21 -42 -24 -13 -4 -23 -10 -23 -14 0 -4 -8 -10
-18 -13 -9 -3 -41 -20 -69 -36 -29 -17 -53 -27 -53 -24 0 4 -6 0 -13 -9 -6 -9
-43 -33 -82 -54 -98 -52 -109 -58 -115 -64 -5 -5 -24 -16 -110 -62 -25 -14
-61 -33 -80 -44 -19 -10 -36 -22 -38 -26 -2 -5 -8 -8 -13 -8 -6 0 -35 -16 -65
-35 -30 -19 -57 -35 -59 -35 -3 0 -23 -11 -45 -25 -22 -14 -40 -23 -40 -20 0
6 -26 -16 -91 -76 -29 -28 -49 -55 -49 -68 0 -11 -4 -21 -10 -21 -16 0 -14
-3016 3 -3027 24 -16 1745 -7 1849 9 16 3 31 8 35 11 3 4 17 7 30 7 13 0 23 4
23 9 0 5 14 12 30 16 17 4 30 11 30 16 0 5 5 9 11 9 6 0 27 12 47 27 20 16
538 529 1150 1140 l1113 1113 215 0 c136 0 214 4 214 10 0 6 6 10 13 10 7 0
25 12 39 28 l26 27 0 345 c-1 321 -2 347 -20 372 -39 56 -53 58 -389 58 -194
0 -310 -4 -314 -10 -3 -5 -14 -10 -24 -10 -23 0 -46 -27 -56 -65 -4 -16 -7
-115 -6 -218 l2 -189 -473 -474 c-260 -261 -733 -735 -1051 -1054 -319 -319
-583 -580 -589 -580 -10 0 -67 -23 -100 -41 -10 -5 -238 -9 -528 -9 l-510 0
-8 23 c-5 12 -8 482 -7 1045 2 991 3 1023 21 1037 10 8 29 18 42 21 12 3 22
10 22 15 0 5 7 9 15 9 8 0 15 3 15 8 0 4 20 16 45 27 25 11 45 22 45 26 0 4 8
9 18 13 17 5 52 26 62 36 3 3 16 11 30 18 14 6 52 27 85 47 33 19 71 41 85 47
14 7 31 19 39 26 7 7 34 23 60 34 25 12 48 25 51 28 3 4 32 22 65 40 33 18 72
42 88 52 15 11 27 16 27 12 0 -4 10 2 23 14 12 11 34 24 50 27 15 4 27 11 27
16 0 5 7 9 15 9 8 0 15 4 15 9 0 5 10 13 22 17 12 3 45 22 74 40 29 19 58 34
64 34 5 0 10 4 10 9 0 5 8 11 18 15 9 3 26 11 37 18 66 43 125 77 145 83 13 4
33 16 44 27 11 10 31 21 43 24 13 4 23 10 23 15 0 5 5 9 10 9 6 0 39 18 74 40
35 22 68 40 75 40 6 0 11 5 11 10 0 6 4 10 10 10 5 0 40 19 77 42 85 52 161
95 193 111 14 6 31 18 39 25 7 7 34 23 60 34 25 12 48 25 51 28 3 4 32 22 65
40 33 18 72 41 87 51 14 11 30 19 36 19 5 0 15 6 21 14 7 8 26 18 42 21 16 4
29 10 29 14 0 4 17 16 38 27 20 10 39 21 42 24 4 4 39 24 95 54 11 6 22 13 25
16 10 10 45 31 63 36 9 4 17 10 17 15 0 5 6 9 13 9 7 0 29 11 48 25 20 13 39
22 41 19 3 -2 13 5 23 16 10 11 24 20 32 20 7 0 13 4 13 8 0 4 12 13 28 19 38
16 136 73 142 83 3 5 18 12 33 15 15 4 27 10 27 14 0 4 18 16 40 27 22 10 40
22 40 27 0 17 66 1 90 -23 3 -3 28 -16 55 -30 28 -13 52 -27 55 -30 9 -9 84
-51 103 -57 9 -3 17 -9 17 -14 0 -5 6 -9 14 -9 8 0 21 -6 28 -12 7 -7 27 -20
43 -28 17 -8 37 -19 45 -26 8 -7 40 -25 70 -42 73 -39 121 -66 167 -94 21 -13
55 -32 76 -43 20 -11 37 -22 37 -26 0 -6 12 -11 42 -17 5 -1 32 -18 62 -37 30
-19 60 -35 66 -35 5 0 10 -4 10 -9 0 -5 10 -13 23 -17 12 -4 24 -9 27 -13 4
-5 33 -22 95 -55 11 -6 22 -13 25 -16 3 -3 22 -14 43 -24 20 -11 37 -22 37
-26 0 -5 12 -11 26 -14 15 -4 50 -21 78 -39 28 -18 68 -41 89 -52 20 -11 37
-22 37 -25 0 -3 20 -14 45 -24 25 -11 45 -23 45 -28 0 -4 7 -8 15 -8 8 0 15
-4 15 -10 0 -5 6 -10 13 -10 13 0 89 -38 97 -49 3 -4 21 -15 40 -24 37 -19 72
-39 80 -47 5 -5 16 -11 120 -68 86 -46 105 -57 110 -62 3 -3 21 -14 40 -24 19
-11 37 -22 40 -26 3 -3 21 -14 40 -23 37 -19 72 -39 80 -47 3 -3 27 -16 55
-30 27 -14 73 -40 102 -57 29 -18 57 -33 63 -33 5 0 10 -3 10 -8 0 -4 17 -16
38 -27 20 -11 60 -33 87 -50 28 -16 67 -39 88 -49 20 -11 37 -23 37 -27 0 -4
14 -10 30 -14 17 -4 30 -10 30 -15 0 -4 12 -13 28 -19 15 -6 45 -22 67 -36 22
-14 47 -28 55 -32 8 -3 17 -9 20 -12 3 -3 21 -15 40 -25 19 -11 37 -22 40 -26
3 -3 23 -14 45 -24 22 -11 42 -22 45 -25 3 -3 14 -11 25 -17 20 -11 20 -21 19
-1515 -1 -1464 -9 -1928 -34 -1953 -5 -5 -10 -29 -10 -52 0 -24 -4 -45 -9 -48
-5 -3 -12 -35 -16 -71 -3 -36 -11 -65 -16 -65 -5 0 -9 -16 -9 -35 0 -19 -4
-35 -9 -35 -5 0 -12 -22 -16 -50 -4 -27 -11 -50 -16 -50 -5 0 -9 -11 -9 -25 0
-14 -4 -25 -10 -25 -5 0 -10 -8 -10 -17 0 -10 -14 -45 -30 -78 -16 -33 -30
-66 -30 -72 0 -7 -3 -13 -8 -13 -8 0 -42 -73 -42 -90 0 -6 -3 -10 -7 -10 -5 0
-13 -10 -19 -23 -39 -80 -66 -127 -75 -133 -6 -3 -14 -16 -20 -27 -10 -24 -28
-54 -44 -73 -5 -7 -21 -29 -35 -50 -14 -20 -35 -47 -47 -61 -13 -13 -23 -27
-23 -31 0 -4 -15 -24 -33 -44 -17 -20 -57 -67 -87 -104 -67 -82 -414 -430
-534 -534 -47 -41 -99 -86 -114 -100 -16 -14 -57 -47 -91 -75 -34 -27 -84 -68
-110 -90 -27 -22 -58 -47 -69 -55 -59 -45 -139 -110 -178 -144 -24 -21 -44
-36 -44 -32 0 4 -13 -6 -29 -21 -16 -15 -48 -41 -70 -58 -23 -16 -56 -42 -74
-57 -17 -15 -38 -28 -44 -28 -7 0 -13 -4 -13 -9 0 -5 -27 -28 -61 -52 -34 -24
-80 -60 -104 -79 -24 -19 -54 -43 -67 -53 -12 -9 -43 -33 -68 -52 -25 -19 -50
-38 -55 -43 -6 -4 -33 -25 -60 -47 -28 -23 -75 -58 -105 -80 -30 -22 -56 -43
-58 -47 -2 -4 -20 -17 -40 -30 -20 -12 -43 -30 -50 -40 -7 -10 -19 -18 -26
-18 -7 0 -23 -11 -36 -25 -13 -14 -28 -25 -35 -25 -6 0 -18 -8 -26 -18 -9 -9
-37 -33 -63 -52 -26 -19 -63 -48 -82 -64 l-34 -28 0 -417 c0 -229 4 -421 8
-428 13 -20 64 -16 82 7 3 3 27 22 55 41 27 18 58 42 69 51 11 10 28 20 38 24
10 3 18 10 18 15 0 5 4 9 10 9 5 0 21 10 34 21 14 12 33 27 44 33 11 6 53 37
95 68 42 32 81 58 86 58 6 0 11 4 11 8 0 4 15 16 33 27 37 22 39 24 88 65 20
16 40 30 43 30 4 0 19 11 34 25 15 14 30 25 34 25 4 0 18 10 31 23 14 12 41
33 61 47 20 14 45 32 56 41 11 9 36 27 55 40 19 13 35 27 35 32 0 4 5 7 10 7
14 0 77 45 145 103 18 15 36 27 40 27 7 0 54 37 102 80 12 11 25 20 29 20 3 0
20 11 38 26 52 42 111 88 141 109 15 11 48 37 74 58 25 20 51 41 56 45 11 8
89 69 115 89 8 6 35 28 60 47 25 20 50 40 55 44 9 6 33 25 119 92 11 8 41 34
66 58 26 23 50 42 53 42 3 0 24 17 45 38 22 20 73 64 113 97 108 89 693 677
683 687 -1 2 14 22 34 46 20 23 48 58 62 78 14 20 37 50 53 67 15 16 27 33 27
37 0 3 8 15 18 26 10 10 28 36 41 57 13 21 29 43 35 50 16 15 64 96 72 120 4
9 10 17 14 17 4 0 11 11 14 25 4 14 11 25 16 25 6 0 10 7 10 15 0 8 5 15 10
15 6 0 10 6 10 13 0 6 6 23 14 37 7 14 25 47 40 74 14 27 26 55 26 62 0 8 5
14 10 14 6 0 10 5 10 11 0 5 10 31 22 57 12 26 23 52 24 59 1 7 9 27 18 44 9
18 16 38 16 46 0 7 5 13 11 13 6 0 9 7 6 15 -4 8 -2 17 3 20 6 4 10 17 10 31
0 13 4 24 9 24 5 0 11 15 15 32 9 48 11 57 19 64 4 4 7 18 7 30 0 13 4 25 9
28 5 4 12 29 16 56 4 27 11 52 16 56 5 3 9 20 9 38 0 18 3 36 8 40 7 8 30 128
39 211 3 28 9 55 13 60 24 29 31 642 25 2185 -3 877 -8 1619 -11 1648 -3 28
-10 52 -15 52 -5 0 -9 6 -9 13 0 26 -65 82 -142 122 -21 11 -38 24 -38 29 0 5
-3 7 -6 4 -3 -4 -33 10 -67 29 -34 20 -72 41 -84 47 -13 6 -23 14 -23 19 0 4
-6 7 -14 7 -8 0 -21 6 -28 13 -7 6 -31 21 -53 32 -22 11 -64 35 -94 53 -29 18
-88 52 -130 74 -42 22 -78 43 -81 47 -3 3 -21 14 -40 25 -79 41 -147 80 -172
97 -14 11 -29 19 -33 19 -3 0 -30 16 -60 35 -30 19 -55 33 -55 30 0 -3 -25 11
-55 30 -30 19 -57 35 -60 35 -4 0 -21 10 -38 22 -18 13 -57 36 -87 51 -30 16
-57 32 -60 36 -3 3 -33 21 -68 39 -83 43 -104 55 -120 70 -7 6 -20 12 -28 12
-8 0 -14 3 -14 8 0 4 -19 16 -43 27 -23 10 -64 33 -92 50 -27 17 -57 34 -65
38 -8 4 -33 18 -55 32 -22 14 -52 30 -67 36 -16 6 -28 14 -28 17 0 4 -19 16
-43 27 -38 18 -114 61 -163 93 -10 7 -27 15 -36 18 -10 4 -18 10 -18 14 0 5
-13 11 -29 15 -16 3 -37 15 -47 26 -9 10 -23 19 -31 19 -7 0 -13 5 -13 12 0 6
-3 9 -6 5 -3 -3 -24 5 -45 19 -21 13 -43 24 -48 24 -5 0 -11 3 -13 8 -1 4 -29
20 -60 36 -32 15 -58 32 -58 36 0 4 -12 11 -26 14 -15 4 -50 21 -78 39 -28 18
-68 41 -89 51 -20 11 -37 22 -37 26 0 5 -12 11 -27 15 -28 7 -82 41 -95 60 -4
5 -8 7 -8 3 0 -7 -90 39 -100 51 -3 3 -30 19 -60 35 -108 56 -145 78 -167 99
-13 11 -23 17 -23 14 0 -4 -18 4 -40 18 -22 14 -44 25 -49 25 -5 0 -11 3 -13
8 -1 4 -31 22 -66 39 -77 40 -105 56 -112 63 -3 3 -21 13 -40 24 -79 42 -126
69 -134 77 -13 12 -149 12 -161 0z"/>
<path d="M6373 6842 c-50 -24 -55 -66 -51 -437 2 -176 7 -327 11 -336 18 -36
85 -59 173 -59 l84 0 0 -234 0 -234 -116 -109 c-63 -59 -277 -268 -475 -463
-198 -195 -409 -402 -470 -460 -61 -58 -166 -161 -232 -228 -119 -121 -285
-286 -613 -610 -89 -88 -165 -169 -169 -181 -3 -11 -11 -21 -16 -21 -5 0 -9
-7 -9 -15 0 -8 -4 -15 -9 -15 -5 0 -12 -18 -16 -40 -4 -22 -11 -40 -16 -40 -5
0 -9 -15 -9 -33 0 -19 -2 -36 -5 -39 -3 -3 -7 -426 -8 -941 -1 -514 -5 -938
-9 -942 -11 -11 -51 2 -75 25 -12 11 -24 20 -27 20 -2 0 -30 18 -62 40 -33 23
-70 48 -84 58 -40 26 -115 86 -118 95 -2 4 -8 7 -14 7 -6 0 -23 10 -38 23 -16
12 -50 38 -77 57 -26 19 -55 43 -64 52 -9 10 -20 18 -24 18 -7 0 -57 38 -101
78 -14 12 -28 22 -32 22 -4 0 -19 11 -34 25 -15 14 -30 25 -34 25 -7 0 -66 47
-121 97 -19 18 -37 33 -40 33 -3 0 -25 17 -49 38 -24 20 -69 57 -99 82 -63 50
-114 95 -225 197 -97 88 -430 425 -430 434 0 4 -15 23 -32 42 -18 19 -49 55
-68 81 -19 25 -47 61 -62 79 -15 17 -28 37 -28 42 0 6 -9 17 -20 25 -11 8 -20
18 -20 22 0 5 -13 27 -30 50 -16 22 -30 47 -30 55 0 7 -4 13 -8 13 -5 0 -17
17 -28 38 -10 20 -21 39 -24 42 -4 4 -24 39 -54 95 -6 11 -15 23 -20 26 -5 4
-5 12 -2 18 4 6 2 11 -3 11 -6 0 -11 9 -11 20 0 11 -3 20 -7 20 -5 0 -16 19
-27 43 -10 23 -22 50 -27 59 -5 10 -9 25 -9 33 0 8 -4 15 -10 15 -5 0 -9 3 -9
8 3 16 -14 72 -22 72 -5 0 -9 11 -9 24 0 14 -5 28 -11 31 -6 4 -8 13 -5 21 3
7 1 16 -4 19 -6 4 -10 19 -10 35 0 16 -4 31 -9 34 -9 6 -23 76 -22 113 0 12
-4 25 -9 28 -6 3 -10 26 -10 50 0 24 -4 46 -9 49 -4 3 -11 40 -14 83 -9 126
37 113 -399 113 l-380 0 7 -27 c7 -29 25 -187 29 -260 1 -23 5 -45 9 -49 4 -4
7 -27 7 -50 0 -24 4 -45 9 -48 8 -5 22 -79 22 -118 0 -10 4 -20 10 -23 5 -4 9
-22 9 -41 0 -19 4 -34 9 -34 5 0 11 -12 14 -27 10 -51 28 -118 37 -135 6 -9
13 -35 16 -58 4 -22 10 -40 15 -40 5 0 9 -11 9 -25 0 -14 4 -25 9 -25 5 0 12
-15 15 -34 4 -18 18 -55 31 -82 14 -27 25 -57 25 -66 0 -10 3 -18 8 -18 8 0
42 -73 42 -90 0 -6 4 -10 9 -10 7 0 20 -26 25 -52 0 -4 8 -16 16 -26 8 -10 24
-36 35 -58 11 -21 22 -41 26 -44 3 -3 9 -12 12 -20 4 -8 16 -28 27 -45 11 -16
23 -37 27 -45 3 -8 14 -22 22 -30 17 -16 36 -45 48 -70 4 -8 12 -21 19 -28 7
-7 41 -52 76 -100 34 -48 73 -98 85 -112 13 -14 23 -28 23 -32 0 -3 17 -25 37
-47 21 -22 72 -79 113 -127 132 -151 377 -388 574 -556 17 -14 51 -44 76 -65
25 -21 81 -67 125 -103 44 -35 88 -72 98 -82 10 -10 21 -18 25 -18 4 0 24 -15
44 -32 20 -18 58 -49 84 -68 26 -19 55 -43 65 -52 11 -10 22 -18 25 -18 4 0
21 -12 39 -27 18 -16 58 -46 89 -68 31 -22 56 -43 56 -47 0 -4 6 -8 13 -8 6 0
26 -13 44 -28 18 -15 57 -45 87 -67 30 -22 55 -43 56 -47 0 -5 6 -8 13 -8 6 0
26 -13 44 -28 18 -15 48 -38 68 -52 20 -14 42 -30 48 -35 7 -6 55 -41 107 -79
52 -38 97 -73 98 -77 2 -5 9 -9 15 -9 7 0 24 -11 39 -25 15 -14 31 -25 37 -25
5 0 11 -3 13 -8 4 -10 84 -72 93 -72 4 0 22 -12 39 -28 18 -15 45 -36 60 -47
16 -11 41 -30 56 -42 15 -13 31 -23 35 -23 4 0 24 -14 44 -30 49 -41 51 -43
89 -65 17 -11 32 -23 32 -27 0 -4 5 -8 11 -8 6 0 28 -14 48 -30 42 -36 46 -39
86 -64 16 -11 34 -23 40 -28 5 -4 28 -22 50 -38 22 -16 45 -34 52 -40 7 -5 16
-10 21 -10 5 0 15 -7 22 -16 8 -8 25 -14 39 -12 l26 3 2 1550 c2 934 6 1558
12 1570 5 11 12 41 15 67 7 61 42 115 133 206 40 40 73 77 73 82 0 4 430 437
955 962 677 675 958 961 962 981 3 15 9 27 14 27 5 0 9 285 9 650 0 427 -3
650 -10 650 -5 0 -10 5 -10 11 0 6 -9 22 -20 36 -11 14 -20 22 -20 17 0 -4 -5
-3 -12 4 -9 9 -98 12 -347 11 -280 -1 -341 -4 -368 -17z"/>
</g>
</svg>
